<svg xmlns="http://www.w3.org/2000/svg" xmlns:xlink="http://www.w3.org/1999/xlink" width="1308" height="1204" viewBox="0 0 1308 1204">
  <defs>
    <clipPath id="clip-path">
      <circle id="Ellipse_628" data-name="Ellipse 628" cx="705.502" cy="705.502" r="705.502" transform="translate(0 997.731) rotate(-45)" fill="none"/>
    </clipPath>
    <linearGradient id="linear-gradient" x1="0.138" y1="-0.034" x2="0.678" y2="0.79" gradientUnits="objectBoundingBox">
      <stop offset="0.058" stop-color="#86e1f6"/>
      <stop offset="0.311" stop-color="#5fb8e8"/>
      <stop offset="0.773" stop-color="#1167ce"/>
    </linearGradient>
    <linearGradient id="linear-gradient-2" x1="0.288" y1="0.102" x2="0.756" y2="0.966" xlink:href="#linear-gradient"/>
    <linearGradient id="linear-gradient-3" x1="0.179" y1="0.027" x2="0.689" y2="0.799" xlink:href="#linear-gradient"/>
    <linearGradient id="linear-gradient-4" x1="-0.438" y1="0.106" x2="0.956" y2="0.692" xlink:href="#linear-gradient"/>
    <linearGradient id="linear-gradient-6" x1="0.225" y1="0.091" x2="0.696" y2="0.809" xlink:href="#linear-gradient"/>
    <linearGradient id="linear-gradient-7" x1="0.261" y1="0.131" x2="0.7" y2="0.813" xlink:href="#linear-gradient"/>
    <linearGradient id="linear-gradient-9" x1="0.141" y1="-0.031" x2="0.702" y2="0.792" gradientUnits="objectBoundingBox">
      <stop offset="0.058" stop-color="#86e1f6"/>
      <stop offset="0.362" stop-color="#5fb8e8"/>
      <stop offset="0.914" stop-color="#1167ce"/>
    </linearGradient>
    <clipPath id="clip-Map_Illustration">
      <rect width="1308" height="1204"/>
    </clipPath>
  </defs>
  <g id="Map_Illustration" data-name="Map Illustration" clip-path="url(#clip-Map_Illustration)">
    <g id="Group_1305" data-name="Group 1305" transform="translate(-256.731 -512.962)" opacity="0.13" style="mix-blend-mode: multiply;isolation: isolate">
      <g id="Group_1304" data-name="Group 1304" transform="translate(0 0)" clip-path="url(#clip-path)">
        <path id="Path_13791" data-name="Path 13791" d="M-153.27,270.421s21.5,12.9,21.5,61.618,0,90.149,14.325,84.476-4.3-99.785,12.9-72.788,12.89,54.222,18.624,84.315-21.49,32.963,0,51.59,44.418,27.227,58.748,28.66S-20,535.516,7.22,546.98s50.152,2.864,57.315,21.5S76.71,598.572,100,600s40.488-8.6,50.521,12.9c10.035,21.482-24.365,47.284-17.2,83.1s7.167,55.886,37.26,74.509c30.09,18.638,21.495,54.458,44.425,63.06s41.554-2.868,58.75,31.515,27.222,81.684,47.286,110.342,5.73,44.425,40.121,71.647,17.2,31.528,47.291,53.018,72.122,38.691,73.078,26.276-12.419-9.56-38.213-24.843-21.972-21.017-25.787-41.074c-3.83-20.066-7.649-22.935,8.591-28.658s12.424-18.151,9.558-27.711,9.549,3.826,22.923-15.279,11.558-26.755,22.976-40.128-1.692-24.834,15.846-31.526,43.33-1.906,56.706-28.658,16.24-52.541,18.149-67.823,42.992-24.845,43.945-44.9,6.689-31.528,0-33.445-27.7,5.734-37.255-9.54c-9.551-15.292-21.972-8.611-38.215-11.464-16.234-2.872-29.613,5.723-30.57,0s1.915-13.377-3.813-15.3-22.932-8.236-28.662-5.551-16.243,25.619-20.066,10.336S444.273,689.79,444.273,681.2s7.645-21.977-12.424-34.392S397.465,631.526,386,631.526s-37.258-9.549-42.032-21.017-25.8-8.6-29.615-11.937-.475-12.906-6.216-13.377-5.248-7.645-13.368-6.21S280.916,591.4,272.8,585.666s-15.761-11.939-22.454-7.64-16.384.484-17.266-3.815c-.883-4.314-11.865-10.995-17.6-7.638-5.734,3.324-9.551,14.321-15.283,7.638s3.821-12.428,0-15.767-16.723,6.21-21.021,9.073-18.151-1.908-20.537,7.169,0,23.395-8.6,19.106-13.854-9.56-25.316-6.207-35.347,10.5-43.467-12.426,5.254-45.851-3.821-50.634-31.526,3.35-38.211-7.156,8.12-54.46,4.295-61.621-28.655-4.3-32,0,3.826,19.584-5.259,27.227-21.006,11.944-27.225,3.346-23.4-46.333-19.578-80.247,8.114-47.291,21.97-52.54,20.062-.484,32,1.908-1.433-4.774-1.433-12.415,25.318-6.21,39.65,0,17.191,0,23.881,13.85S80.3,392.7,93.677,400.343,106.8,392.22,100,368.817s-8.7-42.034,6.576-53.018,37.737-27.7,42.987-42.034.48-42.987,5.734-47.766-1.911,25.792,6.687,24.363,9.555-19.109,15.283-27.7-7.167-10.511,15.763-14.33,35.825,3.819,31.526-7.64-10.511-13.852-.955-22.93,27.224-11.942,41.554-18.387,27.942-14.69,27.222-9.673-34.745,21.493-19.7,25.072,24.005-11.817,42.278-17.549,31.877-7.523,29.373-16.838,2.5-7.167-14.323-2.51-21.144,11.466-29.382.362-27.946-17.913-16.836-23.29,19.708-6.445,13.97-12.535-6.8-5.017-25.8,1.791c-18.98,6.805-27.222,27.944-36.178,20.06s25.792-22.926,39.048-32.241,36.184-4.657,40.126-4.3,31.164,5.019,41.192-3.939,17.556-12.9,22.93-12.539,4.3,7.523-1.075,14.688S365.1,98.467,364.029,108.5s16.836,5.014,25.787,11.822,25.8,10.029,29.739,3.226,2.866-12.184-8.958-17.2-23.648,0-21.137-12.541,13.617-27.942,8.24-40.477-19.7-9.673-28.658-19.7S339.668,16.072,343.969,10.7s6.8-7.163,1.786-20.062-10.386-28.3-15.4-27.58S312.443-19.751,302.41-17.6s-11.819-5.017-15.756-5.732,11.813-22.928,6.441-26.509S275.9-38.735,271.953-51.992c-3.933-13.255,1.44-16.838-12.171-16.121s-17.948-9.673-26.705,2.148-7.686,23.283-12.352,30.806c-4.648,7.525-17.907,5.736-15.041,14.332S223.241-11.868,215,.669s-24,19.7-31.53,24.718,0,27.584-10.744,40.124-34.394,5.014-27.942-12.539,16.478-28.3,2.866-29.735S131.885,21.8,123.647,11.775,100.366,7.118,97.14-.764s4.295-14.69,1.071-18.269S83.888-22.259,87.465-29.422,126.88-66.594,139.77-71.65s13.97-9.359,17.918-14.373S178.229-96,187.414-98.563c9.44-2.628,16.6-16.48,22.33-19.344s-4.774,8.594,12.895-2.388,20.546-8.12,25.8-20.064,10.984-21.015-.478-16.716-18.624,27.225-26.271,16.238,5.732-23.405-10.033-20.06-18.624,15.283-32.948,19.582-16.723,10.511-36.311,6.687-46.806-1.911-22.923-10.509,38.691-1.433,47.764-13.372,8.118-12.9,30.093-34.871,94.1-64.482,124.667-74.988S369.758-286.519,386-281.742s29.615,15.285,26.745,27.7,4.783,2.866,23.879,20.062,30.577,29.613,29.622,40.124,4.779-.955,6.689,19.1-10.513,18.147-12.428,38.211-5.372,28.716,13.728,49.733,9.972,33.744,27.643,38.935c20.725,6.087,32.837-4.415,42.385-22.568s5.248-40.828,33.912-47.515,29.273-34.847,43.6-41.535,63.856-18.175,55.59-72.581c-12.421-21.97-17.2-29.613-21.021-41.077s-6.685-23.881-40.124-23.881-53.5,10.506-76.421,0S647.748-361.99,813.97-316.134s223.543,173.867,223.543,173.867-59.228-34.394-68.781-30.57-36.3,11.464-24.841,40.124,26.747,22.926,13.379,43.945-42.038,32.477-13.379,53.492,36.3-19.1,53.5,5.736S1035.6,33.5,1037.514,2.937s-30.57-53.5-30.57-74.513,17.357-22.926,30.647,0,30.494,24.836,43.866,51.585,51.592,49.677,0,59.228-39.833,24.581-53.2,53.241-63.341.26-65.254,21.274,7.182,34.082-6.194,39.814-40.725,20.023-41.1,35.3c-2.685,108,108.436,14.681,117.991,3.215s62.471-2.8,96.86,25.857,18.973-28.034,53.668-46.146c17.684-9.237,27.152,10.738,44.348,43.216s43.947,53.5,28.666,84.066-64.966,0-72.607,17.2-1.913,57.319-26.747,32.479-66.873-30.566-55.413-55.4-24.956,10.94-49.8,12.851-34.265-47.241-57.193-35.779-21.017-19.1-61.136,21.015-21.017,43.951-40.126,66.873-74.507,82.153-70.692,99.349,17.475,25.635,4.1,56.2-15.564,27.868,13.1,56.528,26.742,49.67,61.136,61.139,45.853-3.824,72.6,1.911,55.409-17.2,70.7,0c15.283,17.187-13.37,24.843-3.828,63.047s34.4,49.679,0,85.975c-34.385,36.3-45.851,82.158-57.313,120.377-11.464,38.2-17.194,53.5-30.568,70.692s-24.843,38.2,21.013,9.549,61.747-88.559,107.6-117.219,82.062-56.706,106.9-104.477S1305,600.952,1314.548,526.439c0,0-125.143,537.844-466.189,658.2C507.318,1305.013,68.836,1067.142-97.377,792.016S-153.27,270.421-153.27,270.421Z" transform="translate(429.57 556.499)" fill="url(#linear-gradient)"/>
        <path id="Path_13792" data-name="Path 13792" d="M146.471-307.2c8.264,3.789,16.175,4.825,24.465,4.626-1.516-7.7-2.951-15.385-4.249-23.052C147.248-318.128,139.272-310.5,146.471-307.2Z" transform="translate(822.9 566.672)" fill="url(#linear-gradient-2)"/>
        <path id="Path_13793" data-name="Path 13793" d="M1188.961,761.381c-24.838,47.771-61.047,75.811-106.9,104.477s-61.743,88.559-107.6,117.219-34.394,7.638-21.019-9.549c13.381-17.2,19.111-32.488,30.575-70.692,11.462-38.219,22.928-84.077,57.313-120.377,34.4-36.3,9.555-47.757,0-85.975s19.111-45.86,3.828-63.047c-15.287-17.2-43.94,5.732-70.7,0s-38.209,9.555-72.6-1.911-32.483-32.485-61.136-61.138-26.47-25.959-13.1-56.528-.284-39-4.1-56.2,51.59-76.424,70.692-99.349,0-26.749,40.126-66.873,38.211-9.551,61.136-21.015,32.354,37.689,57.193,35.779,61.267-37.689,49.8-12.851,30.579,30.568,55.413,55.4,19.1-15.285,26.747-32.479,57.317,13.379,72.607-17.2-11.464-51.585-28.666-84.066-26.664-52.453-44.348-43.216c-34.695,18.112-19.274,74.8-53.668,46.146s-87.305-37.319-96.86-25.857S913.016,296.874,915.7,188.87c.377-15.281,27.728-29.571,41.1-35.3s4.284-18.8,6.194-39.816,51.878,7.387,65.254-21.272,1.616-43.685,53.2-53.241,13.377-32.479,0-59.228-30.573-28.657-43.866-51.585-30.647-21.017-30.647,0,32.479,43.943,30.57,74.513S1014.586-4.707,997.4-29.541c-17.2-24.838-24.845,15.285-53.5-5.736s0-32.479,13.379-53.492-1.917-15.287-13.379-43.945,15.283-36.3,24.841-40.124,68.781,30.57,68.781,30.57S980.192-270.28,813.97-316.134c-114.043-31.462-211.432-15.7-253.952.683,1.3,7.667,2.733,15.355,4.249,23.052,14.683-.355,30.581-4.626,51.956-4.626,33.438,0,36.3,12.417,40.124,23.881s8.6,19.106,21.021,41.077c8.266,54.405-41.256,65.9-55.59,72.581-13.407,6.255-14.821,31.307-38.424,39.982A194.4,194.4,0,0,1,560.52-49.943c-18.69,31.15-68.526,43.609-87.22,80.989-24.923,56.07,56.07,130.827-6.229,168.209-37.38,24.919-105.91-6.229-137.056,18.688C267.709,267.782,292.63,379.921,217.875,417.3c-62.3,31.146-143.3,31.146-186.9,0C9.259,400.6-8.77,379.775-23.922,356.33c-9.7,6.709-13.344,20.664-16.62,49.744-3.821,33.914,13.37,71.651,19.578,80.247s18.16,4.3,27.225-3.346c9.084-7.647,1.919-22.93,5.259-27.227s28.184-7.167,32,0-10.982,51.11-4.295,61.62,29.137,2.384,38.211,7.156-4.3,27.709,3.821,50.634,32,15.767,43.467,12.426,16.72,1.909,25.316,6.207,6.2-10.033,8.6-19.106,16.243-4.3,20.537-7.169,17.2-12.417,21.021-9.073-5.734,9.073,0,15.767,9.549-4.314,15.283-7.638c5.734-3.357,16.716,3.324,17.6,7.638.881,4.3,10.578,8.114,17.266,3.815s14.334,1.906,22.454,7.64,13.857-5.246,21.972-6.681,7.64,5.734,13.368,6.21,2.386,10.026,6.216,13.377,24.834.469,29.615,11.937S374.533,631.527,386,631.527s25.8,2.859,45.853,15.283S444.273,672.6,444.273,681.2s9.553,14.336,13.368,29.617,14.334-7.638,20.066-10.336,22.926,3.64,28.662,5.551,2.866,9.562,3.813,15.3,14.336-2.873,30.57,0c16.243,2.853,28.664-3.828,38.215,11.464,9.553,15.274,30.568,7.636,37.255,9.54s.96,13.383,0,33.445-42.032,29.617-43.945,44.9S567.5,861.749,554.129,888.5s-39.166,21.975-56.706,28.658-4.43,18.16-15.846,31.526-9.6,21.017-22.976,40.128-25.792,5.73-22.923,15.279,6.681,21.981-9.558,27.711-12.421,8.591-8.591,28.657c3.815,20.057,0,25.789,25.785,41.074s39.17,12.419,38.215,24.843-42.985-4.774-73.078-26.276-12.9-25.789-47.291-53.018-20.057-42.992-40.121-71.647-30.09-75.95-47.286-110.342S237.928,842.169,215,833.577s-14.334-44.423-44.425-63.06c-30.093-18.622-30.093-38.684-37.26-74.509s27.235-61.623,17.2-83.1c-10.033-21.5-27.225-11.468-50.521-12.9S71.7,587.1,64.535,568.48s-30.09-10.035-57.315-21.5-20.057-37.258-34.392-38.688-37.26-10.031-58.748-28.66,5.732-21.495,0-51.59-1.435-57.317-18.624-84.315,1.429,67.121-12.9,72.788-14.325-35.757-14.325-84.476-21.5-61.618-21.5-61.618S-263.6,516.888-97.377,792.016s604.7,513,945.737,392.62c286.021-100.939,420.163-495.45,456.014-620.148C1277.644,635.16,1209.847,721.216,1188.961,761.381Z" transform="translate(429.57 556.498)" fill="url(#linear-gradient-3)" style="mix-blend-mode: multiply;isolation: isolate"/>
        <path id="Path_13794" data-name="Path 13794" d="M495.6,98.417c5.058-13.364,8.659-26.191,10.175-38.049C505.775,60.368,502.494,74.438,495.6,98.417Z" transform="translate(1238.344 1022.569)" fill="url(#linear-gradient-4)"/>
        <path id="Path_13795" data-name="Path 13795" d="M495.6,98.417c5.058-13.364,8.659-26.191,10.175-38.049C505.775,60.368,502.494,74.438,495.6,98.417Z" transform="translate(1238.344 1022.569)" fill="url(#linear-gradient-4)"/>
        <path id="Path_13796" data-name="Path 13796" d="M1188.961,756.14c-24.838,47.771-61.047,75.811-106.9,104.477s-61.743,88.559-107.6,117.219-34.394,7.638-21.019-9.549c13.381-17.2,19.111-32.488,30.575-70.692,11.462-38.219,22.928-84.077,57.313-120.377,34.4-36.3,9.555-47.757,0-85.975s19.111-45.86,3.828-63.047c-15.287-17.2-43.94,5.732-70.7,0s-38.209,9.555-72.6-1.911-32.483-32.485-61.136-61.139-26.47-25.959-13.1-56.528-.284-39-4.1-56.2,51.59-76.424,70.692-99.349,0-26.749,40.126-66.873,38.211-9.551,61.136-21.015,32.354,37.689,57.193,35.779,61.267-37.689,49.8-12.851,30.579,30.568,55.413,55.4,19.1-15.285,26.747-32.479,57.317,13.379,72.607-17.2-11.464-51.585-28.666-84.066-26.664-52.453-44.348-43.216c-34.695,18.112-19.274,74.8-53.668,46.146s-87.305-37.319-96.86-25.857S913.016,291.633,915.7,183.629c.377-15.281,27.728-29.571,41.1-35.3s4.284-18.8,6.194-39.816,51.878,7.387,65.254-21.272,1.616-43.685,53.2-53.241,13.377-32.479,0-59.228-30.573-28.657-43.866-51.585-30.647-21.017-30.647,0,32.479,43.943,30.57,74.513S1014.586-9.948,997.4-34.782c-17.2-24.838-24.845,15.285-53.5-5.736s0-32.479,13.379-53.492-1.917-15.287-13.379-43.945,15.283-36.3,24.841-40.124,68.781,30.57,68.781,30.57S980.192-275.521,813.97-321.374c-12.118-3.344-24.031-6.1-35.737-8.428-48.067,82.921-13,214.941-55.738,305.769C697.58,38.266,597.9,25.8,560.52,88.1c-37.386,68.528-18.69,155.75-49.838,224.278-96,208.928-371.134,146.594-528.5,35.67-.262.1-.489.142-.757.242-13.857,5.25-18.149,18.624-21.97,52.541s13.37,71.651,19.578,80.247,18.16,4.3,27.225-3.346c9.084-7.647,1.919-22.93,5.259-27.227s28.184-7.167,32,0-10.982,51.11-4.295,61.62,29.137,2.384,38.211,7.156-4.3,27.709,3.821,50.634,32,15.767,43.467,12.426,16.72,1.908,25.316,6.207,6.2-10.033,8.6-19.106,16.243-4.3,20.537-7.169,17.2-12.417,21.021-9.073-5.734,9.073,0,15.767,9.549-4.314,15.283-7.638c5.734-3.357,16.716,3.324,17.6,7.638.881,4.3,10.578,8.114,17.266,3.815s14.334,1.906,22.454,7.64,13.857-5.246,21.972-6.681,7.64,5.734,13.368,6.21,2.386,10.026,6.216,13.377,24.834.469,29.615,11.937S374.533,626.286,386,626.286s25.8,2.859,45.853,15.283,12.424,25.792,12.424,34.392,9.553,14.336,13.368,29.617,14.334-7.638,20.066-10.336,22.926,3.64,28.662,5.551,2.866,9.562,3.813,15.3,14.336-2.872,30.57,0c16.243,2.853,28.664-3.828,38.215,11.464,9.553,15.274,30.568,7.636,37.255,9.54s.96,13.383,0,33.445-42.032,29.617-43.945,44.9-4.774,41.072-18.149,67.824-39.166,21.975-56.706,28.657-4.43,18.16-15.846,31.526-9.6,21.017-22.976,40.128-25.792,5.73-22.923,15.279,6.681,21.981-9.558,27.711-12.421,8.591-8.591,28.657c3.815,20.057,0,25.789,25.785,41.075s39.17,12.419,38.215,24.843-42.985-4.774-73.078-26.276-12.9-25.789-47.291-53.018-20.057-42.992-40.121-71.647-30.09-75.95-47.286-110.342S237.928,836.928,215,828.337s-14.334-44.423-44.425-63.06c-30.093-18.622-30.093-38.684-37.26-74.509s27.235-61.623,17.2-83.1c-10.033-21.5-27.225-11.468-50.521-12.9s-28.293-12.9-35.463-31.521S34.444,553.2,7.22,541.74s-20.057-37.258-34.392-38.688-37.26-10.031-58.748-28.66,5.732-21.495,0-51.59-1.435-57.317-18.624-84.315,1.429,67.121-12.9,72.788-14.325-35.757-14.325-84.476-21.5-61.618-21.5-61.618S-263.6,511.648-97.377,786.776s604.7,513,945.737,392.62c286.021-100.939,420.163-495.45,456.014-620.148C1277.644,629.92,1209.847,715.975,1188.961,756.14Z" transform="translate(429.57 561.739)" opacity="0.2" fill="url(#linear-gradient-6)" style="mix-blend-mode: multiply;isolation: isolate"/>
        <path id="Path_13797" data-name="Path 13797" d="M1181.81,732.532c-24.838,47.771-61.047,75.811-106.9,104.477s-61.743,88.559-107.6,117.219-34.394,7.638-21.019-9.549c13.381-17.2,19.111-32.488,30.575-70.692,11.462-38.219,22.928-84.077,57.313-120.377,34.4-36.3,9.555-47.757,0-85.975s19.111-45.86,3.828-63.047c-15.287-17.2-43.94,5.732-70.7,0s-38.209,9.555-72.6-1.911-32.483-32.485-61.136-61.138-26.47-25.959-13.1-56.527-.284-39-4.1-56.2,51.589-76.424,70.692-99.349,0-26.749,40.126-66.873,38.211-9.551,61.136-21.015,32.354,37.689,57.193,35.779,61.267-37.689,49.8-12.851,30.579,30.568,55.413,55.4,19.1-15.285,26.747-32.479,57.317,13.379,72.607-17.2-11.464-51.585-28.666-84.066-26.664-52.453-44.348-43.216c-34.695,18.112-19.274,74.8-53.668,46.146s-87.305-37.319-96.86-25.857-120.676,104.789-117.991-3.215c.377-15.281,27.728-29.571,41.1-35.3s4.284-18.8,6.194-39.816,51.878,7.387,65.254-21.272,1.616-43.685,53.2-53.241,13.377-32.479,0-59.228-30.573-28.657-43.866-51.585-30.647-21.017-30.647,0,32.479,43.943,30.57,74.513-22.928-7.645-40.117-32.479c-17.2-24.838-24.845,15.285-53.5-5.736s0-32.479,13.379-53.492S948.2-132.9,936.742-161.562s15.283-36.3,24.84-40.124,68.781,30.57,68.781,30.57-36.989-82.435-137.5-138.7c-28.893,47.96-48.863,99.456-52.92,156.261-12.461,105.912,62.3,205.588,0,299.038-68.526,105.91-274.112,112.139-224.281,261.66,31.155,87.214,130.833,149.51,87.218,249.2-28.9,74.323-78.352,117.841-138.565,141.927-2.013,15.536-5.69,38.1-17.338,61.383-13.377,26.751-39.166,21.974-56.707,28.658s-4.43,18.16-15.846,31.526-9.6,21.017-22.976,40.128-25.792,5.73-22.923,15.279,6.681,21.981-9.558,27.711-12.421,8.591-8.591,28.657c3.815,20.057,0,25.789,25.785,41.074s39.17,12.419,38.215,24.843-42.985-4.774-73.078-26.276-12.9-25.789-47.291-53.018-20.057-42.992-40.121-71.647S283.8,870.635,266.6,836.244c-7.152-14.3-14.557-20.627-22.411-23.8-33.22-4.238-65.492-8.9-95.763-12.805C-4.594,773.5-101.7,678.053-183.108,566.884c13.1,61.446,37.308,127.98,78.581,196.284,166.213,275.126,604.7,513,945.737,392.62,286.021-100.939,420.163-495.45,456.014-620.148C1270.494,606.312,1202.7,692.367,1181.81,732.532Z" transform="translate(436.72 585.347)" opacity="0.2" fill="url(#linear-gradient-7)" style="mix-blend-mode: multiply;isolation: isolate"/>
        <path id="Path_13798" data-name="Path 13798" d="M495.6,98.417c5.058-13.364,8.659-26.191,10.175-38.049C505.775,60.368,502.494,74.438,495.6,98.417Z" transform="translate(1238.344 1022.569)" fill="url(#linear-gradient-4)"/>
        <path id="Path_13799" data-name="Path 13799" d="M638.23,1163.791c-58.03,0-118.8-8.19-180.111-23.874.454.009.91.009,1.357.009,23.111,0,36.481-16.576,37.735-32.935,2.351-30.557-23.739-40.815-33.565-44.669a125.7,125.7,0,0,1-19.831-9.359,70.915,70.915,0,0,1-8.792-5.865c-.2-1.15-.414-2.683-.617-4.016-.4-2.818-.857-5.915-1.5-9.4,9.248-5.9,18.956-16.1,20.561-33.282a60.681,60.681,0,0,0,15.283-15.5,145.7,145.7,0,0,0,14.967-26.965c2.305-5.208,3.265-7.376,6.181-10.794a52.2,52.2,0,0,0,11.848-24.588c.587-.109,1.184-.222,1.775-.318,16.227-2.879,46.429-8.223,63.1-41.581,13.612-27.227,17.94-52.863,20.227-70.238,2.059-1.4,4.585-3,6.526-4.242,14.855-9.438,37.308-23.7,38.586-50.68a134.016,134.016,0,0,1,1.747-14.893c5.368-34.045-10.258-45.967-24.308-49.978a42.2,42.2,0,0,0-11.763-1.531c-2.127,0-4.626.14-7.348.332-1.139.081-2.369.183-3.638.233-15.625-20.4-36.839-20.4-46.268-20.4h-2.545a44.186,44.186,0,0,1-7.038-.377,72.58,72.58,0,0,0-12.077-1.069,35.835,35.835,0,0,0-17.878-13.089l-1.6-.539c-10.3-3.52-22.19-7.267-33.083-7.267a45.721,45.721,0,0,0-4.744.24c.2-13.392-3.867-33.329-28.548-48.6-21.979-13.6-41.759-19.946-62.246-19.946-3.4-.29-11.433-3.35-15.124-5.754-7.893-14.779-21.874-20.491-32.889-23.015a33.3,33.3,0,0,0-16.221-14.607,37.515,37.515,0,0,0-24.987-9.353,43.148,43.148,0,0,0-7.433.665,43.6,43.6,0,0,0-11.154,3.59,46.646,46.646,0,0,0-23.019-6.452,39.528,39.528,0,0,0-5.5.38,50.051,50.051,0,0,0-29.528-11.307,34.447,34.447,0,0,0-22.138-7.926c-11.222,0-21.1,5.1-30.23,11.05-18.851,1.219-28.926,9.409-34.311,17.763-.633-.024-1.267-.035-1.919-.035a55.957,55.957,0,0,0-15.551,2.305c-1.863.543-4.127,1.206-6.282,1.712a78.222,78.222,0,0,1,1.008-13.252c1.435-11,4.794-36.767-18.775-49.175a48.88,48.88,0,0,0-21.157-5.185c.393-2.161.759-4.188,1.069-5.85,3.453-18.638,5.946-32.1-.848-44.835-4.148-7.784-15.008-20.856-41.114-20.856-9.852,0-26.79,1.625-38.313,11.521a77.039,77.039,0,0,1-1.171-22.2c1.721-15.279,3.276-22.926,4.408-26.762.7.192,1.461.412,2.113.591,2.781.781,6.238,1.767,10.391,2.6A48.718,48.718,0,0,0,1.58,365.29a32.468,32.468,0,0,0,26.845-13.647c1.812.667,3.5,1.2,5.065,1.647.432,1.826.855,3.819,1.2,5.418,2.992,13.981,7.514,35.114,28.165,46.911a42.572,42.572,0,0,0,21.218,6.053,35.141,35.141,0,0,0,28.363-14.127c12.236-16.293,8.238-38.08,2.1-59.186-3.505-12.081-3.939-17.649-3.869-19.961,21.541-15.545,44.774-33.881,52.763-55.666a63.491,63.491,0,0,0,2.482-8.762c12.943-8.275,17.822-23.1,20.489-31.214.558-1.677,1.365-4.148,1.841-5.246.192-.3.373-.591.554-.886,1.293-.074,2.637-.109,4.059-.109,2.048,0,3.9.065,5.531.122,1.948.065,3.7.118,5.239.118,14.062,0,24.67-5.021,31.53-14.917a34,34,0,0,0,5.889-21.828,40.733,40.733,0,0,0,9.045,3.3,50.351,50.351,0,0,0,11.656,1.378c16.284,0,27.9-7.773,36.385-13.442,4.068-2.722,7.579-5.073,10.759-6.072,2.984-.936,5.826-1.756,8.469-2.519,8.166-2.358,15.878-4.582,22.762-8.532,11.115-6.358,18.086-16.461,19.839-27.761A68.7,68.7,0,0,0,395,136.693c15.861,0,29.033-7.036,36.132-19.3,8.212-14.195,6.86-26.376,4.279-34.1C431.833,72.59,423.939,64.1,411.9,58c3.322-11.01,5.163-24.459-.927-38.706C402.763.169,386.429-6.058,378.581-9.053c-.914-.345-2.07-.787-2.857-1.125a80.772,80.772,0,0,0-11.409-9.771c0-6.781-1.655-14.127-4.9-22.474L358.033-46c-7.52-19.554-16.877-43.884-42.715-43.884H313.1l-2.537.338a34.646,34.646,0,0,0-5.915,1.372A34.624,34.624,0,0,0,295-97.527a34.555,34.555,0,0,0-14.1-5.427c-9.039-16.6-27.181-18.164-33.609-18.164-1.1,0-2.312.031-3.64.085-.469-.146-.914-.314-1.328-.456-1.337-.458-3.027-1.038-5.032-1.566,9.281-4.993,17.538-11.207,24.273-26.524.667-1.5,1.337-2.953,1.967-4.332,4.759-10.317,11.942-25.9,1.625-42.028a33.1,33.1,0,0,0-28.093-15.141,41.351,41.351,0,0,0-13.446,2.366c27.63-19.4,71.972-44.7,93.122-51.965q6.164-2.123,11.649-4.066c13.843-4.866,25.8-9.076,31.8-9.076a5.359,5.359,0,0,1,1.636.194,33.08,33.08,0,0,1,3.9,1.4c-.12,16.319,9.2,28.843,26.226,34.455,2.382.781,4.271,1.4,8.471,5.184,12.14,10.925,17.165,16.509,19.22,19.318.107,8.742,2.683,15.314,6.114,20.19a64.116,64.116,0,0,0-11.625,31.822c-.183,1.952-.384,3.784-.576,5.525-2.425,22.049-2.321,41.064,22.267,68.114,4.589,5.049,5.745,8.332,7.492,13.3,3.117,8.857,9.6,27.29,34.42,34.579a70.7,70.7,0,0,0,19.887,2.995c24.738,0,44.532-13.776,58.833-40.946,4.24-8.064,6.5-15.918,8.3-22.232a77.047,77.047,0,0,1,2.859-8.781,16.442,16.442,0,0,1,2.255-.676c30.365-7.086,43.308-29.011,50.274-40.789.763-1.3,1.7-2.883,2.482-4.111q.795-.311,1.673-.648c19.66-7.695,79.5-31.1,68.493-103.578l-.866-5.66L684.3-277.638c-8.892-15.643-11.553-20.45-13.78-27.122l-.369-1.117a72.872,72.872,0,0,0-9.034-18.947c1.762-.022,3.546-.035,5.333-.035a466.016,466.016,0,0,1,123.86,16.984c69.028,19.043,117.448,53.372,149.674,85.043-9.383,3.562-31.286,11.9-41.022,34.091-4.22,9.632-7.538,25.395.63,45.829A101.334,101.334,0,0,0,911.1-121.567c-1.418,1.592-2.966,3.222-4.484,4.831-9.279,9.8-23.309,24.612-21.366,46.165,1.317,14.517,9.673,27.515,24.843,38.647,11.191,8.2,22.912,12.365,34.813,12.365a52.426,52.426,0,0,0,18.6-3.44c.316.482.63.962.947,1.446C976.829-2.817,986.749,12.2,999.683,19.271c-4.452,6.969-7.549,14.965-10.136,24.09-.96,3.4-1.88,6.665-3.134,9.979-.541.02-1.165.035-1.878.035-3.37,0-6.781-.255-10.046-.478-4-.27-8.131-.55-12.325-.55-40.171,0-45,30.671-45.554,36.815a109.456,109.456,0,0,0,.094,19.85c-23.517,12.1-46.859,30.76-47.515,57.319-.75,30.071,5.815,51.79,20.068,66.4a55.487,55.487,0,0,0,12.875,9.854c-1.773,1.675-3.5,3.368-5.193,5.058-27.859,27.868-33.635,44.023-37.489,59.452-1.256,5.03-1.45,5.806-4.534,9.5-3.185,3.826-7.431,8.707-12.24,14.24-52.767,60.7-70.508,86.721-64.925,111.808a95.6,95.6,0,0,0,6.412,18.419c3.4,7.76,3.837,8.757-.447,18.546l-2.746,6.188c-17.8,39.855-9.364,53.127,21.359,83.855l.988.988c8.541,8.541,13.6,16.1,18.939,24.106,10.655,15.935,22.718,34.012,54.377,44.556a108.894,108.894,0,0,0,34.826,6,133.954,133.954,0,0,0,23.46-2.4,73.43,73.43,0,0,1,11.75-1.413,27.88,27.88,0,0,1,5.893.637,75.624,75.624,0,0,0,15.9,1.642,118.265,118.265,0,0,0,26.712-3.531c-2.667,10.74-3.771,24.67.574,42.045,3.341,13.364,8.016,23.77,11.774,32.117,2.031,4.524,4.82,10.714,4.934,12.7h-.011c-.041,0-1.08,3.714-9.1,12.182-36.758,38.8-50.634,85.8-61.793,123.568l-2.753,9.265c-11.228,37.439-15.726,48.18-25.316,60.528-8.993,11.566-25.733,33.087-14.958,55.132a33.9,33.9,0,0,0,30.843,18.816c11.7,0,24.217-5.106,46.228-18.865,28.324-17.706,46.665-44,62.84-67.211,14.009-20.088,27.235-39.053,44.761-50.008,18.607-11.634,35.7-23.283,51.223-35.923C1063.4,960.176,961.472,1084.5,822.627,1133.506,765.688,1153.594,703.655,1163.791,638.23,1163.791Zm-219.476-34.97c-67.911-20.882-135.9-50.783-201-88.828C87.007,963.557-20.9,862.04-86.1,754.139-168.7,617.412-179.907,489.333-171.661,398c5.584,17.475,15.859,27.872,34.8,28.4-4.977,11.87-9.66,33.482,15.174,55.007,19.309,16.736,42.163,28.882,63.289,33.921,4.827,11.115,14.43,28.607,38.163,38.592,14.661,6.173,27.968,7.981,37.689,9.3,1.553.2,3.359.456,5.01.707,7.662,18.941,20.738,42.963,60.253,45.4,2.338.142,4.639.2,6.886.2,4.476,0,8.535-.24,12.223-.523-.51,1.11-1.021,2.172-1.479,3.13C92.9,627.809,81.633,651.5,87.406,680.345c.844,4.251,1.59,8.249,2.3,12.066,5.64,30.457,10.982,59.226,49.1,82.825,5.858,3.623,8.212,8.884,12.541,20.9,5.128,14.19,12.871,35.652,37.334,44.837,10.332,3.869,19.366,4.966,26.629,5.847,10.624,1.28,10.624,1.28,15.209,10.434,6.277,12.568,11.682,27.659,17.407,43.65,8.875,24.768,18.053,50.4,32.221,70.62,4.907,7.025,6.273,12.223,8.354,20.1,3.919,14.958,9.307,35.438,37.953,58.113,12.3,9.741,14.354,13.647,17.191,19.069,5.738,10.929,12.064,21.113,31.321,34.874A276.378,276.378,0,0,0,418.755,1128.821Zm720.538-843.262c-4.264-2.639-8.4-5-12.223-7.185-2.414-1.381-5.25-3-7.778-4.528,1.8-7.486,2.159-17.388-4.081-27.131a32.69,32.69,0,0,0-27.73-15.028c-10.949,0-19.56,4.916-30.457,11.137-4.34,2.48-12.258,7-17.828,9.246-1.791-2.055-3.882-4.729-5.474-6.764-6.323-8.1-14.88-19.054-27.366-25.089a277.1,277.1,0,0,0,29.6-23.648c13.139.116,39.964,7.433,59.282,23.538,7.821,6.508,19.968,15.163,35.166,15.163,28.775,0,38.047-26.2,42.505-38.8.955-2.687,1.849-5.163,2.748-7.387,2.552,4.6,5.254,9.717,7.7,14.352l2.323,4.38a293.735,293.735,0,0,0,16.208,26.313c11.139,16.675,13.841,22.186,13.137,26.359-.277.011-.576.013-.9.013a123.937,123.937,0,0,1-14.048-1.267,144.514,144.514,0,0,0-18.177-1.518c-27.41,0-37.87,16.882-41.1,24.143Q1139.979,283.692,1139.293,285.559ZM153.186-23.812a41.9,41.9,0,0,0-17.643-5.7s-2.506-.262-3.272-.345a47.521,47.521,0,0,0-17.817-13.4,32.572,32.572,0,0,0-.973-4.907c8.681-7.161,18.387-14.417,22.666-16.421,15.778-6.181,23.072-13.684,28.169-20.522A146.418,146.418,0,0,1,180.4-90.323c1.313-.369,2.593-.79,3.826-1.254a95.133,95.133,0,0,0-4.744,14.421c-27.608,14.79-19.754,41.295-18.714,44.42q.618,1.868,1.37,3.555c-1.4.859-2.759,1.655-3.97,2.371C156.373-25.747,154.691-24.748,153.186-23.812Z" transform="translate(447.566 567.577)" opacity="0.3" fill="url(#linear-gradient-9)" style="mix-blend-mode: screen;isolation: isolate"/>
      </g>
    </g>
    <line id="Line_1" data-name="Line 1" x2="1239.786" transform="translate(340.723 453.769)" fill="none" opacity="0.81"/>
  </g>
</svg>
